<?xml version="1.0" standalone="no"?>
<!DOCTYPE svg PUBLIC "-//W3C//DTD SVG 20010904//EN"
 "http://www.w3.org/TR/2001/REC-SVG-20010904/DTD/svg10.dtd">
<svg version="1.0" xmlns="http://www.w3.org/2000/svg"
 width="512.000000pt" height="512.000000pt" viewBox="0 0 512.000000 512.000000"
 preserveAspectRatio="xMidYMid meet">
<metadata>
Created by potrace 1.14, written by Peter Selinger 2001-2017
</metadata>
<g transform="translate(0.000000,512.000000) scale(0.100000,-0.100000)"
fill="#000000" stroke="none">
<path d="M555 4900 c-100 -26 -151 -48 -225 -96 -165 -108 -275 -270 -315
-459 -22 -106 -22 -2599 0 -2693 64 -274 260 -477 527 -548 72 -19 325 -28
365 -13 14 5 30 22 36 38 10 28 11 29 93 28 81 -1 83 -2 94 -28 7 -15 24 -32
38 -37 15 -6 102 -10 193 -11 120 0 176 -4 200 -14 21 -8 190 -170 435 -414
259 -259 416 -409 445 -424 62 -33 176 -33 238 0 29 15 184 163 444 422 220
220 413 407 429 415 25 13 101 16 496 18 412 2 475 4 532 20 260 71 452 266
519 526 18 72 19 127 20 1356 1 886 -2 1299 -10 1340 -27 146 -83 255 -195
380 -64 71 -186 144 -309 185 l-70 24 -1955 2 c-1867 2 -1958 1 -2025 -17z"/>
</g>
</svg>
